<svg height="364" viewBox="0 0 372 364" width="372" xmlns="http://www.w3.org/2000/svg"><path d="m371.366831 184.244962c1.961456 32.382172-.442909 58.98268-9.908516 84.526455-10.465317 28.543925-29.409186 50.249454-55.907824 66.100441-21.867071 13.033035-45.493125 21.341139-70.802234 25.786703-25.752019 4.664199-51.339529 4.737077-77.002967-1.639757-21.284961-5.453712-40.456611-15.000743-58.1223701-27.632948-27.0936204-19.142192-50.7374461-42.415025-69.9923429-68.894102-12.5280093-17.30855-22.48714399-35.698125-27.11871107-56.322629-4.55563975-19.762112-2.7207293-39.050517 3.93556656-57.986678 6.58036851-18.729673 16.76728521-35.600954 28.80176691-51.4033567 18.6021956-24.0619209 39.9883933-45.6945717 64.9052116-63.8290734 17.77965-13.0330344 36.938646-23.47889607 58.742444-29.2727054 20.550997-5.36868705 40.950139-4.70063775 61.425209.97170807 22.17078 6.09746813 41.962504 16.78625683 60.450809 29.91646203 21.259652 15.2072311 39.950429 32.9287569 55.338368 53.881212 15.090686 20.6430894 25.560998 44.0637364 30.750568 68.7847844 2.075347 10.895277 3.467349 21.559773 4.505022 27.013484z" fill="#fc6e69" fill-rule="evenodd" transform="matrix(1 0 0 -1 0 364)"/></svg>
