<?xml version="1.0" encoding="UTF-8"?>
<svg width="372px" height="364px" viewBox="0 0 372 364" version="1.1" xmlns="http://www.w3.org/2000/svg" xmlns:xlink="http://www.w3.org/1999/xlink">
    <!-- Generator: Sketch 51.2 (57519) - http://www.bohemiancoding.com/sketch -->
    <title>Shape Copy</title>
    <desc>Created with Sketch.</desc>
    <defs></defs>
    <g id="↳-Registration-(v2.2.1)" stroke="none" stroke-width="1" fill="none" fill-rule="evenodd">
        <g id="Landing-Page" transform="translate(-176.000000, -2280.000000)" fill="#EBD5E4">
            <g id="Agenda" transform="translate(176.000000, 2280.000000)">
                <path d="M371.366831,184.244962 C373.328287,216.627134 370.923922,243.227642 361.458315,268.771417 C350.992998,297.315342 332.049129,319.020871 305.550491,334.871858 C283.68342,347.904893 260.057366,356.212997 234.748257,360.658561 C208.996238,365.32276 183.408728,365.395638 157.74529,359.018804 C136.460329,353.565092 117.288679,344.018061 99.6229199,331.385856 C72.5292995,312.243664 48.8854738,288.970831 29.630577,262.491754 C17.1025677,245.183204 7.14343301,226.793629 2.51186593,206.169125 C-2.04377382,186.407013 -0.208863365,167.118608 6.44743249,148.182447 C13.027801,129.452774 23.2147177,112.581493 35.2491994,96.7790903 C53.851395,72.7171694 75.2375927,51.0845186 100.154411,32.9500169 C117.934061,19.9169825 137.093057,9.47112083 158.896855,3.6773115 C179.447852,-1.69137555 199.846994,-1.02332625 220.322064,4.64901957 C242.492844,10.7464877 262.284568,21.4352764 280.772873,34.5654816 C302.032525,49.7727127 320.723302,67.4942385 336.111241,88.4466936 C351.201927,109.089783 361.672239,132.51043 366.861809,157.231478 C368.937156,168.126755 370.329158,178.791251 371.366831,184.244962 Z" id="Shape-Copy" transform="translate(186.000000, 182.000000) scale(1, -1) translate(-186.000000, -182.000000) "></path>
            </g>
        </g>
    </g>
</svg>