<svg height="364" viewBox="0 0 372 364" width="372" xmlns="http://www.w3.org/2000/svg"><path d="m1086.36683 254.244962c1.96146 32.382172-.44291 58.98268-9.90852 84.526455-10.46531 28.543925-29.40918 50.249454-55.90782 66.100441-21.86707 13.033035-45.493124 21.341139-70.802233 25.786703-25.752019 4.664199-51.339529 4.737077-77.002967-1.639757-21.284961-5.453712-40.456611-15.000743-58.12237-27.632948-27.093621-19.142192-50.737446-42.415025-69.992343-68.894102-12.528009-17.30855-22.487144-35.698125-27.118711-56.322629-4.55564-19.762112-2.720729-39.050517 3.935566-57.986678 6.580369-18.729673 16.767286-35.600954 28.801767-51.403357 18.602196-24.061921 39.988394-45.694571 64.905212-63.829073 17.77965-13.0330345 36.938646-23.4788962 58.742444-29.2727055 20.550997-5.368687 40.950139-4.7006378 61.425209.9717081 22.17078 6.0974681 41.962504 16.7862568 60.450809 29.9164624 21.259647 15.207231 39.950427 32.928757 55.338367 53.881212 15.09069 20.643089 25.561 44.063736 30.75057 68.784784 2.07535 10.895277 3.46735 21.559773 4.50502 27.013484z" fill="#fc6e69" fill-rule="evenodd" transform="matrix(1 0 0 -1 -715 434)"/></svg>
