<svg height="21" viewBox="0 0 158 21" width="158" xmlns="http://www.w3.org/2000/svg"><path d="m5.664 24h-3.816v-17.016h10.968v3.6h-7.176v3.6h6.312v3.456h-6.288zm22.704-13.392h-5.256v13.392h-3.792v-13.392h-5.232v-3.624h14.28zm18.504 7.296 2.76-10.92h3.888l-4.632 17.016h-3.912l-3.624-11.28-3.648 11.28h-3.984l-4.632-17.016h4.032l2.808 10.896 3.528-10.896h3.888zm19.096 9.096-3.888-6.96h-2.544v6.96h-2.376v-17.016h6.408c3.216 0 5.208 2.256 5.208 5.064 0 2.448-1.56 4.344-4.128 4.824l4.056 7.128zm-6.432-9.072h3.6c1.92 0 3.216-1.128 3.216-2.88 0-1.8-1.296-2.952-3.216-2.952h-3.6zm22.824 9.072h-10.344v-17.016h10.344v2.184h-7.992v5.232h7.248v2.208h-7.248v5.208h7.992zm15.408-14.832h-5.688v14.832h-2.352v-14.832h-5.688v-2.184h13.728zm12.2 11.832-3.888-6.96h-2.544v6.96h-2.376v-17.016h6.408c3.216 0 5.208 2.256 5.208 5.064 0 2.448-1.56 4.344-4.128 4.824l4.056 7.128zm-6.432-9.072h3.6c1.92 0 3.216-1.128 3.216-2.88 0-1.8-1.296-2.952-3.216-2.952h-3.6zm22.824 9.072h-10.344v-17.016h10.344v2.184h-7.992v5.232h7.248v2.208h-7.248v5.208h7.992zm15.384 0-1.848-4.752h-7.536l-1.8 4.752h-2.52l6.768-17.016h2.712l6.768 17.016zm-5.64-14.568-2.904 7.632h5.856zm22.392-.264h-5.688v14.832h-2.352v-14.832h-5.688v-2.184h13.728z" fill="#1a000e" fill-rule="evenodd" transform="translate(-1 -6.5)"/></svg>