<svg xmlns="http://www.w3.org/2000/svg" width="372" height="364" viewBox="0 0 372 364">
  <path fill="#FFC64B" fill-rule="evenodd" d="M725.366831,277.244962 C727.328287,309.627134 724.923922,336.227642 715.458315,361.771417 C704.992998,390.315342 686.049129,412.020871 659.550491,427.871858 C637.68342,440.904893 614.057366,449.212997 588.748257,453.658561 C562.996238,458.32276 537.408728,458.395638 511.74529,452.018804 C490.460329,446.565092 471.288679,437.018061 453.62292,424.385856 C426.529299,405.243664 402.885474,381.970831 383.630577,355.491754 C371.102568,338.183204 361.143433,319.793629 356.511866,299.169125 C351.956226,279.407013 353.791137,260.118608 360.447432,241.182447 C367.027801,222.452774 377.214718,205.581493 389.249199,189.77909 C407.851395,165.717169 429.237593,144.084519 454.154411,125.950017 C471.934061,112.916983 491.093057,102.471121 512.896855,96.6773115 C533.447852,91.3086245 553.846994,91.9766737 574.322064,97.6490196 C596.492844,103.746488 616.284568,114.435276 634.772873,127.565482 C656.032525,142.772713 674.723302,160.494239 690.111241,181.446694 C705.201927,202.089783 715.672239,225.51043 720.861809,250.231478 C722.937156,261.126755 724.329158,271.791251 725.366831,277.244962 Z" transform="matrix(1 0 0 -1 -354 457)"/>
</svg>
