<svg xmlns="http://www.w3.org/2000/svg" width="372" height="364" viewBox="0 0 372 364">
  <path fill="#FFA700" fill-rule="evenodd" d="M657.366831,318.244873 C659.328287,350.627045 656.923922,377.227553 647.458315,402.771328 C636.992998,431.315253 618.049129,453.020782 591.550491,468.871769 C569.68342,481.904804 546.057366,490.212908 520.748257,494.658472 C494.996238,499.322671 469.408728,499.395549 443.74529,493.018715 C422.460329,487.565003 403.288679,478.017972 385.62292,465.385767 C358.529299,446.243575 334.885474,422.970742 315.630577,396.491665 C303.102568,379.183115 293.143433,360.79354 288.511866,340.169037 C283.956226,320.406924 285.791137,301.118519 292.447432,282.182358 C299.027801,263.452685 309.214718,246.581404 321.249199,230.779001 C339.851395,206.71708 361.237593,185.08443 386.154411,166.949928 C403.934061,153.916894 423.093057,143.471032 444.896855,137.677223 C465.447852,132.308536 485.846994,132.976585 506.322064,138.648931 C528.492844,144.746399 548.284568,155.435187 566.772873,168.565393 C588.032525,183.772624 606.723302,201.49415 622.111241,222.446605 C637.201927,243.089694 647.672239,266.510341 652.861809,291.231389 C654.937156,302.126666 656.329158,312.791162 657.366831,318.244873 Z" transform="matrix(1 0 0 -1 -286 498)"/>
</svg>
