<svg height="364" viewBox="0 0 372 364" width="372" xmlns="http://www.w3.org/2000/svg"><path d="m657.366831 318.244873c1.961456 32.382172-.442909 58.98268-9.908516 84.526455-10.465317 28.543925-29.409186 50.249454-55.907824 66.100441-21.867071 13.033035-45.493125 21.341139-70.802234 25.786703-25.752019 4.664199-51.339529 4.737077-77.002967-1.639757-21.284961-5.453712-40.456611-15.000743-58.12237-27.632948-27.093621-19.142192-50.737446-42.415025-69.992343-68.894102-12.528009-17.30855-22.487144-35.698125-27.118711-56.322628-4.55564-19.762113-2.720729-39.050518 3.935566-57.986679 6.580369-18.729673 16.767286-35.600954 28.801767-51.403357 18.602196-24.061921 39.988394-45.694571 64.905212-63.829073 17.77965-13.033034 36.938646-23.478896 58.742444-29.272705 20.550997-5.368687 40.950139-4.700638 61.425209.971708 22.17078 6.097468 41.962504 16.786256 60.450809 29.916462 21.259652 15.207231 39.950429 32.928757 55.338368 53.881212 15.090686 20.643089 25.560998 44.063736 30.750568 68.784784 2.075347 10.895277 3.467349 21.559773 4.505022 27.013484z" fill="#fc6e69" fill-rule="evenodd" transform="matrix(1 0 0 -1 -286 498)"/></svg>