<svg height="24" viewBox="0 0 24 24" width="24" xmlns="http://www.w3.org/2000/svg"><path d="m19.5778817 5.90557908c-.6055103-1.13449212-1.8006982-1.90557908-3.1778817-1.90557908h-8.8c-1.46469368 0-2.72508657.87471565-3.28729475 2.13026304l7.67208225 4.68849466zm.4221183 2.10903602-7.9847875 5.1666272-8.0152125-4.89818546v8.11694316c0 1.99 1.61 3.6 3.6 3.6h8.8c1.9882251 0 3.6-1.6117749 3.6-3.6zm-12.2-6.0146151h8.4c3.2 0 5.8 2.6 5.8 5.8v8.4c0 3.2032515-2.5967485 5.8-5.8 5.8h-8.4c-3.2 0-5.8-2.6-5.8-5.8v-8.4c0-3.20325155 2.59674845-5.8 5.8-5.8z" fill="#595055" fill-rule="evenodd"/></svg>