<svg xmlns="http://www.w3.org/2000/svg" width="24" height="24" viewBox="0 0 24 24">
  <path fill="#A69DA2" fill-rule="evenodd" d="M19.5778817,5.90557908 C18.9723714,4.77108696 17.7771835,4 16.4,4 L7.6,4 C6.13530632,4 4.87491343,4.87471565 4.31270525,6.13026304 L11.9847875,10.8187577 L19.5778817,5.90557908 Z M20,8.0146151 L12.0152125,13.1812423 L4,8.28305684 L4,16.4 C4,18.39 5.61,20 7.6,20 L16.4,20 C18.3882251,20 20,18.3882251 20,16.4 L20,8.0146151 Z M7.8,2 L16.2,2 C19.4,2 22,4.6 22,7.8 L22,16.2 C22,19.4032515 19.4032515,22 16.2,22 L7.8,22 C4.6,22 2,19.4 2,16.2 L2,7.8 C2,4.59674845 4.59674845,2 7.8,2 Z"/>
</svg>
