<svg height="24" viewBox="0 0 24 24" width="24" xmlns="http://www.w3.org/2000/svg"><path d="m17.9 17.39c-.26-.8-1.01-1.39-1.9-1.39h-1v-3c0-.5522847-.4477153-1-1-1h-6v-2h2c.5522847 0 1-.44771525 1-1v-2h2c1.1045695 0 2-.8954305 2-2v-.41c2.93 1.18 5 4.05 5 7.41 0 2.08-.8 3.97-2.1 5.39zm-6.9 2.54c-3.95-.49-7-3.85-7-7.93 0-.62.08-1.22.21-1.79l4.79 4.79v1c0 1.1045695.8954305 2 2 2zm1-17.93c-5.5228475 0-10 4.4771525-10 10 0 2.6521649 1.0535684 5.195704 2.92893219 7.0710678 1.87536378 1.8753638 4.41890291 2.9289322 7.07106781 2.9289322s5.195704-1.0535684 7.0710678-2.9289322 2.9289322-4.4189029 2.9289322-7.0710678-1.0535684-5.19570403-2.9289322-7.07106781c-1.8753638-1.87536379-4.4189029-2.92893219-7.0710678-2.92893219z" fill="#595055" fill-rule="evenodd"/></svg>