<svg xmlns="http://www.w3.org/2000/svg" width="237" height="252" viewBox="0 0 237 252">
  <path fill="#FFDCA0" fill-rule="evenodd" d="M903.283926,325.07252 C896.616507,344.833698 884.547429,359.860603 867.665232,370.834364 C853.733792,379.857233 838.681709,385.608998 822.557357,388.686696 C806.150829,391.915757 789.849109,391.966211 773.499016,387.55148 C759.938435,383.775833 747.724239,377.16635 736.469441,368.420977 C719.208183,355.168691 704.144778,339.056729 691.877545,320.725061 C683.895991,308.742218 677.551058,296.010974 674.600302,281.732471 C671.697918,268.051009 672.866934,254.697498 677.107638,241.587848 C681.29997,228.621151 687.790022,216.941033 695.457151,206.000909 C707.30855,189.342656 720.933628,174.366205 736.808052,161.81155 C748.13541,152.78868 760.341544,145.55693 774.232674,141.545831 C787.325648,137.829048 800.321875,138.291543 813.366476,142.218552 C827.491409,146.439876 840.100652,153.839807 851.879492,162.929949 C865.423947,173.458032 877.331781,185.726781 887.135388,200.232326 C896.749615,214.523696 903.420217,230.73799 906.726475,247.852562 C908.048672,255.395446 908.935512,262.778558 909.59661,266.554205 C910.846247,288.972631 909.314434,307.388367 903.283926,325.07252 Z" transform="matrix(-1 0 0 1 910 -139)"/>
</svg>
