<svg xmlns="http://www.w3.org/2000/svg" width="237" height="252" viewBox="0 0 237 252">
  <path fill="#E2B8A2" fill-rule="evenodd" d="M917.283926,345.07252 C910.616507,364.833698 898.547429,379.860603 881.665232,390.834364 C867.733792,399.857233 852.681709,405.608998 836.557357,408.686696 C820.150829,411.915757 803.849109,411.966211 787.499016,407.55148 C773.938435,403.775833 761.724239,397.16635 750.469441,388.420977 C733.208183,375.168691 718.144778,359.056729 705.877545,340.725061 C697.895991,328.742218 691.551058,316.010974 688.600302,301.732471 C685.697918,288.051009 686.866934,274.697498 691.107638,261.587848 C695.29997,248.621151 701.790022,236.941033 709.457151,226.000909 C721.30855,209.342656 734.933628,194.366205 750.808052,181.81155 C762.13541,172.78868 774.341544,165.55693 788.232674,161.545831 C801.325648,157.829048 814.321875,158.291543 827.366476,162.218552 C841.491409,166.439876 854.100652,173.839807 865.879492,182.929949 C879.423947,193.458032 891.331781,205.726781 901.135388,220.232326 C910.749615,234.523696 917.420217,250.73799 920.726475,267.852562 C922.048672,275.395446 922.935512,282.778558 923.59661,286.554205 C924.846247,308.972631 923.314434,327.388367 917.283926,345.07252 Z" transform="rotate(180 462 205.5)"/>
</svg>
