<svg height="40" viewBox="0 0 40 40" width="40" xmlns="http://www.w3.org/2000/svg"><g fill="none" fill-rule="evenodd"><path d="m39.9319173 20.2466992c.2109093 3.5584803-.0476247 6.4816131-1.0654319 9.2886214-1.1253029 3.136695-3.162278 5.5219179-6.0115939 7.2637847-2.3512979 1.4322016-4.8917338 2.3451801-7.6131435 2.8337036-2.7690343.5125493-5.5203794.5205579-8.2798888-.1801931-2.2887055-.599309-4.3501733-1.6484333-6.2497173-3.0365877-2.91329249-2.1035375-5.45563934-4.6609917-7.52605835-7.5707804-1.34709778-1.9020384-2.41797247-3.9228709-2.91599044-6.1892998-.48985374-2.1716608-.29255154-4.2912657.4231792-6.3721625.70756651-2.0582059 1.80293389-3.9121928 3.09696418-5.6487205 2.00023609-2.64416717 4.29982724-5.02138153 6.97905501-7.01418392 1.9117903-1.43220158 3.9718974-2.58009847 6.3163918-3.21678081 2.2097847-.58996562 4.4032408-.5165536 6.6048612.1067811 2.3839549.67005144 4.5120972 1.8446436 6.500087 3.2875233 2.2859841 1.6711243 4.2957451 3.61854472 5.9503622 5.92101231 1.6226543 2.26847142 2.7484944 4.84216882 3.3065127 7.55876752.2231556 1.1972832.3728331 2.3692058.4844109 2.9685148z" fill="#5562EB" transform="matrix(1 0 0 -1 0 40)"/><path d="m20.295 12.705c.3893607-.3893607 1.0206393-.3893607 1.41 0l6.5878932 6.5878932c.3905243.3905243.3905243 1.0236893 0 1.4142136l-6.5878932 6.5878932c-.3893607.3893607-1.0206393.3893607-1.41 0-.3894628-.3894628-.3897454-1.0208196-.0006314-1.4106309l4.8756314-4.8843691h-12.17c-.5522847 0-1-.4477153-1-1s.4477153-1 1-1h12.17l-4.8756314-4.8843691c-.389114-.3898113-.3888314-1.0211681.0006314-1.4106309z" fill="#fff" fill-rule="nonzero"/></g></svg>
