<svg height="43" viewBox="0 0 40 43" width="40" xmlns="http://www.w3.org/2000/svg"><path d="m51.8664854 42.8676034c-1.1253029 3.3452659-3.162278 5.8890914-6.0115939 7.7467816-2.3512979 1.5274341-4.8917338 2.50112-7.6131435 3.0221274-2.7690343.5466306-5.5203794.5551717-8.2798888-.1921749-2.2887055-.6391593-4.3501733-1.7580439-6.2497173-3.238502-2.9132925-2.2434098-5.4556393-4.9709189-7.5260584-8.0741906-1.3470977-2.0285122-2.4179724-4.1837175-2.9159904-6.60085-.4898537-2.3160628-.2925515-4.5766084.4231792-6.7958719.7075665-2.1950638 1.8029339-4.1723295 3.0969642-6.0243256 2.0002361-2.8199879 4.2998272-5.3552723 6.979055-7.4805838 1.9117903-1.5274341 3.9718974-2.751659 6.3163918-3.4306768 2.2097847-.6291947 4.4032408-.5509013 6.6048612.1138814 2.3839549.7146057 4.5120972 1.967301 6.500087 3.5061233 2.2859841 1.7822437 4.2957451 3.8591555 5.9503622 6.314723 1.6226543 2.4193107 2.7484944 5.1641432 3.3065127 8.0613789.2231556 1.2768951.3728331 2.5267433.4844109 3.1659026.2109093 3.7950973-.0476247 6.9126004-1.0654319 9.9062574z" fill="#fedf5f" fill-rule="evenodd" transform="matrix(-1 0 0 -1 53 54.236)"/></svg>